<mxfile host="app.diagrams.net" modified="2023-10-04T01:59:47.959Z" agent="Mozilla/5.0 (Macintosh; Intel Mac OS X 10_15_7) AppleWebKit/537.36 (KHTML, like Gecko) Chrome/117.0.0.0 Safari/537.36" etag="_1QOHE3KhHSFrNWVGo-X" version="22.0.2" type="github">
  <diagram name="PÃ¡gina-1" id="DIDN5U538hsmvt93PT5t">
    <mxGraphModel dx="2261" dy="704" grid="1" gridSize="10" guides="1" tooltips="1" connect="1" arrows="1" fold="1" page="1" pageScale="1" pageWidth="827" pageHeight="1169" math="0" shadow="0">
      <root>
        <mxCell id="0" />
        <mxCell id="1" parent="0" />
        <mxCell id="MHyRO_CBDMnhwAzOUelk-1" value="Usuarios" style="whiteSpace=wrap;html=1;align=center;" vertex="1" parent="1">
          <mxGeometry x="80" y="500" width="100" height="40" as="geometry" />
        </mxCell>
        <mxCell id="MHyRO_CBDMnhwAzOUelk-15" style="edgeStyle=orthogonalEdgeStyle;rounded=0;orthogonalLoop=1;jettySize=auto;html=1;entryX=0;entryY=0.5;entryDx=0;entryDy=0;endArrow=none;endFill=0;" edge="1" parent="1" source="MHyRO_CBDMnhwAzOUelk-3" target="MHyRO_CBDMnhwAzOUelk-1">
          <mxGeometry relative="1" as="geometry" />
        </mxCell>
        <mxCell id="MHyRO_CBDMnhwAzOUelk-3" value="&lt;span style=&quot;border-bottom: 1px dotted&quot;&gt;Id_Usuarios&lt;/span&gt;" style="ellipse;whiteSpace=wrap;html=1;align=center;" vertex="1" parent="1">
          <mxGeometry x="-150" y="380" width="100" height="40" as="geometry" />
        </mxCell>
        <mxCell id="MHyRO_CBDMnhwAzOUelk-19" style="edgeStyle=orthogonalEdgeStyle;rounded=0;orthogonalLoop=1;jettySize=auto;html=1;entryX=0;entryY=0.5;entryDx=0;entryDy=0;endArrow=none;endFill=0;" edge="1" parent="1" source="MHyRO_CBDMnhwAzOUelk-4" target="MHyRO_CBDMnhwAzOUelk-1">
          <mxGeometry relative="1" as="geometry" />
        </mxCell>
        <mxCell id="MHyRO_CBDMnhwAzOUelk-4" value="Nombre" style="ellipse;whiteSpace=wrap;html=1;align=center;" vertex="1" parent="1">
          <mxGeometry x="-150" y="200" width="100" height="40" as="geometry" />
        </mxCell>
        <mxCell id="MHyRO_CBDMnhwAzOUelk-20" style="edgeStyle=orthogonalEdgeStyle;rounded=0;orthogonalLoop=1;jettySize=auto;html=1;entryX=0;entryY=0.5;entryDx=0;entryDy=0;endArrow=none;endFill=0;" edge="1" parent="1" source="MHyRO_CBDMnhwAzOUelk-5" target="MHyRO_CBDMnhwAzOUelk-1">
          <mxGeometry relative="1" as="geometry" />
        </mxCell>
        <mxCell id="MHyRO_CBDMnhwAzOUelk-5" value="ApellidoP" style="ellipse;whiteSpace=wrap;html=1;align=center;" vertex="1" parent="1">
          <mxGeometry x="-150" y="260" width="100" height="40" as="geometry" />
        </mxCell>
        <mxCell id="MHyRO_CBDMnhwAzOUelk-6" value="ApellidoM" style="ellipse;whiteSpace=wrap;html=1;align=center;" vertex="1" parent="1">
          <mxGeometry x="-150" y="320" width="100" height="40" as="geometry" />
        </mxCell>
        <mxCell id="MHyRO_CBDMnhwAzOUelk-17" style="edgeStyle=orthogonalEdgeStyle;rounded=0;orthogonalLoop=1;jettySize=auto;html=1;entryX=0;entryY=0.5;entryDx=0;entryDy=0;endArrow=none;endFill=0;" edge="1" parent="1" source="MHyRO_CBDMnhwAzOUelk-7" target="MHyRO_CBDMnhwAzOUelk-1">
          <mxGeometry relative="1" as="geometry" />
        </mxCell>
        <mxCell id="MHyRO_CBDMnhwAzOUelk-7" value="&lt;span style=&quot;border-bottom: 1px dotted&quot;&gt;Id_TUsuario&lt;/span&gt;" style="ellipse;whiteSpace=wrap;html=1;align=center;" vertex="1" parent="1">
          <mxGeometry x="-150" y="440" width="100" height="40" as="geometry" />
        </mxCell>
        <mxCell id="MHyRO_CBDMnhwAzOUelk-8" value="Telefono" style="ellipse;whiteSpace=wrap;html=1;align=center;" vertex="1" parent="1">
          <mxGeometry x="-150" y="500" width="100" height="40" as="geometry" />
        </mxCell>
        <mxCell id="MHyRO_CBDMnhwAzOUelk-22" style="edgeStyle=orthogonalEdgeStyle;rounded=0;orthogonalLoop=1;jettySize=auto;html=1;entryX=0;entryY=0.5;entryDx=0;entryDy=0;endArrow=none;endFill=0;" edge="1" parent="1" source="MHyRO_CBDMnhwAzOUelk-9" target="MHyRO_CBDMnhwAzOUelk-1">
          <mxGeometry relative="1" as="geometry" />
        </mxCell>
        <mxCell id="MHyRO_CBDMnhwAzOUelk-9" value="Email" style="ellipse;whiteSpace=wrap;html=1;align=center;" vertex="1" parent="1">
          <mxGeometry x="-150" y="564.5" width="100" height="40" as="geometry" />
        </mxCell>
        <mxCell id="MHyRO_CBDMnhwAzOUelk-24" style="edgeStyle=orthogonalEdgeStyle;rounded=0;orthogonalLoop=1;jettySize=auto;html=1;entryX=0;entryY=0.5;entryDx=0;entryDy=0;endArrow=none;endFill=0;" edge="1" parent="1" source="MHyRO_CBDMnhwAzOUelk-10" target="MHyRO_CBDMnhwAzOUelk-1">
          <mxGeometry relative="1" as="geometry" />
        </mxCell>
        <mxCell id="MHyRO_CBDMnhwAzOUelk-10" value="UserName" style="ellipse;whiteSpace=wrap;html=1;align=center;" vertex="1" parent="1">
          <mxGeometry x="-150" y="630" width="100" height="40" as="geometry" />
        </mxCell>
        <mxCell id="MHyRO_CBDMnhwAzOUelk-25" style="edgeStyle=orthogonalEdgeStyle;rounded=0;orthogonalLoop=1;jettySize=auto;html=1;entryX=0;entryY=0.5;entryDx=0;entryDy=0;endArrow=none;endFill=0;" edge="1" parent="1" source="MHyRO_CBDMnhwAzOUelk-11" target="MHyRO_CBDMnhwAzOUelk-1">
          <mxGeometry relative="1" as="geometry" />
        </mxCell>
        <mxCell id="MHyRO_CBDMnhwAzOUelk-11" value="Password" style="ellipse;whiteSpace=wrap;html=1;align=center;" vertex="1" parent="1">
          <mxGeometry x="-150" y="690" width="100" height="40" as="geometry" />
        </mxCell>
        <mxCell id="MHyRO_CBDMnhwAzOUelk-26" style="edgeStyle=orthogonalEdgeStyle;rounded=0;orthogonalLoop=1;jettySize=auto;html=1;entryX=0;entryY=0.5;entryDx=0;entryDy=0;endArrow=none;endFill=0;" edge="1" parent="1" source="MHyRO_CBDMnhwAzOUelk-12" target="MHyRO_CBDMnhwAzOUelk-1">
          <mxGeometry relative="1" as="geometry" />
        </mxCell>
        <mxCell id="MHyRO_CBDMnhwAzOUelk-12" value="Online" style="ellipse;whiteSpace=wrap;html=1;align=center;" vertex="1" parent="1">
          <mxGeometry x="-150" y="750" width="100" height="40" as="geometry" />
        </mxCell>
        <mxCell id="MHyRO_CBDMnhwAzOUelk-27" style="edgeStyle=orthogonalEdgeStyle;rounded=0;orthogonalLoop=1;jettySize=auto;html=1;entryX=0;entryY=0.5;entryDx=0;entryDy=0;endArrow=none;endFill=0;" edge="1" parent="1" source="MHyRO_CBDMnhwAzOUelk-13" target="MHyRO_CBDMnhwAzOUelk-1">
          <mxGeometry relative="1" as="geometry" />
        </mxCell>
        <mxCell id="MHyRO_CBDMnhwAzOUelk-13" value="Id_Estatus" style="ellipse;whiteSpace=wrap;html=1;align=center;" vertex="1" parent="1">
          <mxGeometry x="-150" y="810" width="100" height="40" as="geometry" />
        </mxCell>
        <mxCell id="MHyRO_CBDMnhwAzOUelk-29" style="edgeStyle=orthogonalEdgeStyle;rounded=0;orthogonalLoop=1;jettySize=auto;html=1;entryX=0;entryY=0.5;entryDx=0;entryDy=0;endArrow=none;endFill=0;" edge="1" parent="1" source="MHyRO_CBDMnhwAzOUelk-14" target="MHyRO_CBDMnhwAzOUelk-1">
          <mxGeometry relative="1" as="geometry" />
        </mxCell>
        <mxCell id="MHyRO_CBDMnhwAzOUelk-14" value="ImgUser" style="ellipse;whiteSpace=wrap;html=1;align=center;" vertex="1" parent="1">
          <mxGeometry x="-150" y="870" width="100" height="40" as="geometry" />
        </mxCell>
        <mxCell id="MHyRO_CBDMnhwAzOUelk-16" value="PK" style="text;strokeColor=none;fillColor=none;spacingLeft=4;spacingRight=4;overflow=hidden;rotatable=0;points=[[0,0.5],[1,0.5]];portConstraint=eastwest;fontSize=12;whiteSpace=wrap;html=1;" vertex="1" parent="1">
          <mxGeometry x="-30" y="370" width="40" height="30" as="geometry" />
        </mxCell>
        <mxCell id="MHyRO_CBDMnhwAzOUelk-18" value="Fk" style="text;strokeColor=none;fillColor=none;spacingLeft=4;spacingRight=4;overflow=hidden;rotatable=0;points=[[0,0.5],[1,0.5]];portConstraint=eastwest;fontSize=12;whiteSpace=wrap;html=1;" vertex="1" parent="1">
          <mxGeometry x="-30" y="430" width="40" height="30" as="geometry" />
        </mxCell>
        <mxCell id="MHyRO_CBDMnhwAzOUelk-21" style="edgeStyle=orthogonalEdgeStyle;rounded=0;orthogonalLoop=1;jettySize=auto;html=1;entryX=-0.06;entryY=0.5;entryDx=0;entryDy=0;entryPerimeter=0;endArrow=none;endFill=0;" edge="1" parent="1" source="MHyRO_CBDMnhwAzOUelk-8" target="MHyRO_CBDMnhwAzOUelk-1">
          <mxGeometry relative="1" as="geometry" />
        </mxCell>
        <mxCell id="MHyRO_CBDMnhwAzOUelk-30" value="TUsuario" style="whiteSpace=wrap;html=1;align=center;" vertex="1" parent="1">
          <mxGeometry x="450" y="500" width="100" height="40" as="geometry" />
        </mxCell>
        <mxCell id="MHyRO_CBDMnhwAzOUelk-36" style="edgeStyle=orthogonalEdgeStyle;rounded=0;orthogonalLoop=1;jettySize=auto;html=1;entryX=0.5;entryY=1;entryDx=0;entryDy=0;endArrow=none;endFill=0;" edge="1" parent="1" source="MHyRO_CBDMnhwAzOUelk-31" target="MHyRO_CBDMnhwAzOUelk-30">
          <mxGeometry relative="1" as="geometry">
            <Array as="points">
              <mxPoint x="350" y="570" />
              <mxPoint x="500" y="570" />
            </Array>
          </mxGeometry>
        </mxCell>
        <mxCell id="MHyRO_CBDMnhwAzOUelk-31" value="&lt;span style=&quot;border-bottom: 1px dotted&quot;&gt;Id_TUsuario&lt;/span&gt;" style="ellipse;whiteSpace=wrap;html=1;align=center;" vertex="1" parent="1">
          <mxGeometry x="300" y="590" width="100" height="40" as="geometry" />
        </mxCell>
        <mxCell id="MHyRO_CBDMnhwAzOUelk-37" style="edgeStyle=orthogonalEdgeStyle;rounded=0;orthogonalLoop=1;jettySize=auto;html=1;entryX=0.5;entryY=1;entryDx=0;entryDy=0;endArrow=none;endFill=0;" edge="1" parent="1" source="MHyRO_CBDMnhwAzOUelk-34" target="MHyRO_CBDMnhwAzOUelk-30">
          <mxGeometry relative="1" as="geometry" />
        </mxCell>
        <mxCell id="MHyRO_CBDMnhwAzOUelk-34" value="NombreTUsuario" style="ellipse;whiteSpace=wrap;html=1;align=center;" vertex="1" parent="1">
          <mxGeometry x="450" y="590" width="100" height="40" as="geometry" />
        </mxCell>
        <mxCell id="MHyRO_CBDMnhwAzOUelk-38" style="edgeStyle=orthogonalEdgeStyle;rounded=0;orthogonalLoop=1;jettySize=auto;html=1;entryX=0.5;entryY=1;entryDx=0;entryDy=0;endArrow=none;endFill=0;" edge="1" parent="1" source="MHyRO_CBDMnhwAzOUelk-35" target="MHyRO_CBDMnhwAzOUelk-30">
          <mxGeometry relative="1" as="geometry">
            <Array as="points">
              <mxPoint x="630" y="570" />
              <mxPoint x="500" y="570" />
            </Array>
          </mxGeometry>
        </mxCell>
        <mxCell id="MHyRO_CBDMnhwAzOUelk-35" value="Descripicion" style="ellipse;whiteSpace=wrap;html=1;align=center;" vertex="1" parent="1">
          <mxGeometry x="580" y="590" width="100" height="40" as="geometry" />
        </mxCell>
        <mxCell id="MHyRO_CBDMnhwAzOUelk-40" style="edgeStyle=orthogonalEdgeStyle;rounded=0;orthogonalLoop=1;jettySize=auto;html=1;entryX=0.5;entryY=0;entryDx=0;entryDy=0;endArrow=ERone;endFill=0;startArrow=ERone;startFill=0;" edge="1" parent="1" source="MHyRO_CBDMnhwAzOUelk-39" target="MHyRO_CBDMnhwAzOUelk-1">
          <mxGeometry relative="1" as="geometry" />
        </mxCell>
        <mxCell id="MHyRO_CBDMnhwAzOUelk-42" style="edgeStyle=orthogonalEdgeStyle;rounded=0;orthogonalLoop=1;jettySize=auto;html=1;entryX=0.5;entryY=0;entryDx=0;entryDy=0;endArrow=ERone;endFill=0;startArrow=ERone;startFill=0;" edge="1" parent="1" source="MHyRO_CBDMnhwAzOUelk-39" target="MHyRO_CBDMnhwAzOUelk-30">
          <mxGeometry relative="1" as="geometry" />
        </mxCell>
        <mxCell id="MHyRO_CBDMnhwAzOUelk-39" value="Tiene" style="shape=rhombus;perimeter=rhombusPerimeter;whiteSpace=wrap;html=1;align=center;" vertex="1" parent="1">
          <mxGeometry x="280" y="360" width="120" height="60" as="geometry" />
        </mxCell>
        <mxCell id="MHyRO_CBDMnhwAzOUelk-45" style="edgeStyle=orthogonalEdgeStyle;rounded=0;orthogonalLoop=1;jettySize=auto;html=1;entryX=0;entryY=0.5;entryDx=0;entryDy=0;endArrow=none;endFill=0;" edge="1" parent="1" source="MHyRO_CBDMnhwAzOUelk-44" target="MHyRO_CBDMnhwAzOUelk-1">
          <mxGeometry relative="1" as="geometry" />
        </mxCell>
        <mxCell id="MHyRO_CBDMnhwAzOUelk-44" value="&lt;span style=&quot;border-bottom: 1px dotted&quot;&gt;Id_Plantel&lt;/span&gt;" style="ellipse;whiteSpace=wrap;html=1;align=center;" vertex="1" parent="1">
          <mxGeometry x="-150" y="940" width="100" height="40" as="geometry" />
        </mxCell>
        <mxCell id="MHyRO_CBDMnhwAzOUelk-46" value="Planteles" style="whiteSpace=wrap;html=1;align=center;" vertex="1" parent="1">
          <mxGeometry x="290" y="760" width="100" height="40" as="geometry" />
        </mxCell>
        <mxCell id="MHyRO_CBDMnhwAzOUelk-53" style="edgeStyle=orthogonalEdgeStyle;rounded=0;orthogonalLoop=1;jettySize=auto;html=1;entryX=1;entryY=0.5;entryDx=0;entryDy=0;endArrow=none;endFill=0;" edge="1" parent="1" source="MHyRO_CBDMnhwAzOUelk-47" target="MHyRO_CBDMnhwAzOUelk-46">
          <mxGeometry relative="1" as="geometry" />
        </mxCell>
        <mxCell id="MHyRO_CBDMnhwAzOUelk-47" value="&lt;span style=&quot;border-bottom: 1px dotted&quot;&gt;Id_Plantel&lt;/span&gt;" style="ellipse;whiteSpace=wrap;html=1;align=center;" vertex="1" parent="1">
          <mxGeometry x="480" y="700" width="100" height="40" as="geometry" />
        </mxCell>
        <mxCell id="MHyRO_CBDMnhwAzOUelk-55" style="edgeStyle=orthogonalEdgeStyle;rounded=0;orthogonalLoop=1;jettySize=auto;html=1;endArrow=none;endFill=0;" edge="1" parent="1" source="MHyRO_CBDMnhwAzOUelk-48">
          <mxGeometry relative="1" as="geometry">
            <mxPoint x="390" y="780" as="targetPoint" />
          </mxGeometry>
        </mxCell>
        <mxCell id="MHyRO_CBDMnhwAzOUelk-48" value="Nombreplantel" style="ellipse;whiteSpace=wrap;html=1;align=center;" vertex="1" parent="1">
          <mxGeometry x="480" y="760" width="100" height="40" as="geometry" />
        </mxCell>
        <mxCell id="MHyRO_CBDMnhwAzOUelk-56" style="edgeStyle=orthogonalEdgeStyle;rounded=0;orthogonalLoop=1;jettySize=auto;html=1;entryX=1;entryY=0.5;entryDx=0;entryDy=0;endArrow=none;endFill=0;" edge="1" parent="1" source="MHyRO_CBDMnhwAzOUelk-49" target="MHyRO_CBDMnhwAzOUelk-46">
          <mxGeometry relative="1" as="geometry" />
        </mxCell>
        <mxCell id="MHyRO_CBDMnhwAzOUelk-49" value="EmailPlantel" style="ellipse;whiteSpace=wrap;html=1;align=center;" vertex="1" parent="1">
          <mxGeometry x="480" y="820" width="100" height="40" as="geometry" />
        </mxCell>
        <mxCell id="MHyRO_CBDMnhwAzOUelk-57" style="edgeStyle=orthogonalEdgeStyle;rounded=0;orthogonalLoop=1;jettySize=auto;html=1;entryX=1;entryY=0.5;entryDx=0;entryDy=0;endArrow=none;endFill=0;" edge="1" parent="1" source="MHyRO_CBDMnhwAzOUelk-50" target="MHyRO_CBDMnhwAzOUelk-46">
          <mxGeometry relative="1" as="geometry" />
        </mxCell>
        <mxCell id="MHyRO_CBDMnhwAzOUelk-50" value="TelefonoPlantel" style="ellipse;whiteSpace=wrap;html=1;align=center;" vertex="1" parent="1">
          <mxGeometry x="480" y="880" width="100" height="40" as="geometry" />
        </mxCell>
        <mxCell id="MHyRO_CBDMnhwAzOUelk-58" style="edgeStyle=orthogonalEdgeStyle;rounded=0;orthogonalLoop=1;jettySize=auto;html=1;entryX=1;entryY=0.5;entryDx=0;entryDy=0;endArrow=none;endFill=0;" edge="1" parent="1" source="MHyRO_CBDMnhwAzOUelk-51" target="MHyRO_CBDMnhwAzOUelk-46">
          <mxGeometry relative="1" as="geometry" />
        </mxCell>
        <mxCell id="MHyRO_CBDMnhwAzOUelk-51" value="&lt;span style=&quot;border-bottom: 1px dotted&quot;&gt;Id_Estado&lt;/span&gt;" style="ellipse;whiteSpace=wrap;html=1;align=center;" vertex="1" parent="1">
          <mxGeometry x="480" y="940" width="100" height="40" as="geometry" />
        </mxCell>
        <mxCell id="MHyRO_CBDMnhwAzOUelk-60" style="edgeStyle=orthogonalEdgeStyle;rounded=0;orthogonalLoop=1;jettySize=auto;html=1;entryX=1;entryY=0.5;entryDx=0;entryDy=0;endArrow=none;endFill=0;" edge="1" parent="1" source="MHyRO_CBDMnhwAzOUelk-52" target="MHyRO_CBDMnhwAzOUelk-46">
          <mxGeometry relative="1" as="geometry" />
        </mxCell>
        <mxCell id="MHyRO_CBDMnhwAzOUelk-52" value="&lt;span style=&quot;border-bottom: 1px dotted&quot;&gt;Id_Municipio&lt;/span&gt;" style="ellipse;whiteSpace=wrap;html=1;align=center;" vertex="1" parent="1">
          <mxGeometry x="480" y="1000" width="100" height="40" as="geometry" />
        </mxCell>
        <mxCell id="MHyRO_CBDMnhwAzOUelk-54" value="PK" style="text;strokeColor=none;fillColor=none;spacingLeft=4;spacingRight=4;overflow=hidden;rotatable=0;points=[[0,0.5],[1,0.5]];portConstraint=eastwest;fontSize=12;whiteSpace=wrap;html=1;" vertex="1" parent="1">
          <mxGeometry x="440" y="690" width="40" height="30" as="geometry" />
        </mxCell>
        <mxCell id="MHyRO_CBDMnhwAzOUelk-59" value="FK" style="text;strokeColor=none;fillColor=none;spacingLeft=4;spacingRight=4;overflow=hidden;rotatable=0;points=[[0,0.5],[1,0.5]];portConstraint=eastwest;fontSize=12;whiteSpace=wrap;html=1;" vertex="1" parent="1">
          <mxGeometry x="440" y="930" width="40" height="30" as="geometry" />
        </mxCell>
        <mxCell id="MHyRO_CBDMnhwAzOUelk-61" value="FK" style="text;strokeColor=none;fillColor=none;spacingLeft=4;spacingRight=4;overflow=hidden;rotatable=0;points=[[0,0.5],[1,0.5]];portConstraint=eastwest;fontSize=12;whiteSpace=wrap;html=1;" vertex="1" parent="1">
          <mxGeometry x="440" y="990" width="40" height="30" as="geometry" />
        </mxCell>
        <mxCell id="MHyRO_CBDMnhwAzOUelk-62" value="PK" style="text;strokeColor=none;fillColor=none;spacingLeft=4;spacingRight=4;overflow=hidden;rotatable=0;points=[[0,0.5],[1,0.5]];portConstraint=eastwest;fontSize=12;whiteSpace=wrap;html=1;" vertex="1" parent="1">
          <mxGeometry x="350" y="540" width="40" height="30" as="geometry" />
        </mxCell>
        <mxCell id="MHyRO_CBDMnhwAzOUelk-64" style="edgeStyle=orthogonalEdgeStyle;rounded=0;orthogonalLoop=1;jettySize=auto;html=1;entryX=0.5;entryY=1;entryDx=0;entryDy=0;endArrow=ERone;endFill=0;startArrow=ERone;startFill=0;" edge="1" parent="1" source="MHyRO_CBDMnhwAzOUelk-63" target="MHyRO_CBDMnhwAzOUelk-1">
          <mxGeometry relative="1" as="geometry">
            <Array as="points">
              <mxPoint x="130" y="610" />
              <mxPoint x="130" y="610" />
            </Array>
          </mxGeometry>
        </mxCell>
        <mxCell id="MHyRO_CBDMnhwAzOUelk-65" style="edgeStyle=orthogonalEdgeStyle;rounded=0;orthogonalLoop=1;jettySize=auto;html=1;entryX=0;entryY=0.5;entryDx=0;entryDy=0;endArrow=ERone;endFill=0;startArrow=ERone;startFill=0;" edge="1" parent="1" source="MHyRO_CBDMnhwAzOUelk-63" target="MHyRO_CBDMnhwAzOUelk-46">
          <mxGeometry relative="1" as="geometry" />
        </mxCell>
        <mxCell id="MHyRO_CBDMnhwAzOUelk-63" value="Tiene" style="shape=rhombus;perimeter=rhombusPerimeter;whiteSpace=wrap;html=1;align=center;" vertex="1" parent="1">
          <mxGeometry x="70" y="690" width="120" height="60" as="geometry" />
        </mxCell>
        <mxCell id="MHyRO_CBDMnhwAzOUelk-66" value="Estado" style="whiteSpace=wrap;html=1;align=center;" vertex="1" parent="1">
          <mxGeometry x="100" y="1020" width="100" height="40" as="geometry" />
        </mxCell>
        <mxCell id="MHyRO_CBDMnhwAzOUelk-67" value="&lt;span style=&quot;border-bottom: 1px dotted&quot;&gt;Id_Estado&lt;/span&gt;" style="ellipse;whiteSpace=wrap;html=1;align=center;" vertex="1" parent="1">
          <mxGeometry x="30" y="1120" width="100" height="40" as="geometry" />
        </mxCell>
        <mxCell id="MHyRO_CBDMnhwAzOUelk-70" style="edgeStyle=orthogonalEdgeStyle;rounded=0;orthogonalLoop=1;jettySize=auto;html=1;exitX=0.5;exitY=0;exitDx=0;exitDy=0;entryX=0.5;entryY=1;entryDx=0;entryDy=0;endArrow=none;endFill=0;" edge="1" parent="1" source="MHyRO_CBDMnhwAzOUelk-68" target="MHyRO_CBDMnhwAzOUelk-66">
          <mxGeometry relative="1" as="geometry" />
        </mxCell>
        <mxCell id="MHyRO_CBDMnhwAzOUelk-68" value="NombreEstado" style="ellipse;whiteSpace=wrap;html=1;align=center;" vertex="1" parent="1">
          <mxGeometry x="150" y="1120" width="100" height="40" as="geometry" />
        </mxCell>
        <mxCell id="MHyRO_CBDMnhwAzOUelk-69" style="edgeStyle=orthogonalEdgeStyle;rounded=0;orthogonalLoop=1;jettySize=auto;html=1;entryX=0.5;entryY=1.25;entryDx=0;entryDy=0;entryPerimeter=0;endArrow=none;endFill=0;" edge="1" parent="1" source="MHyRO_CBDMnhwAzOUelk-67" target="MHyRO_CBDMnhwAzOUelk-66">
          <mxGeometry relative="1" as="geometry" />
        </mxCell>
        <mxCell id="MHyRO_CBDMnhwAzOUelk-73" style="edgeStyle=orthogonalEdgeStyle;rounded=0;orthogonalLoop=1;jettySize=auto;html=1;entryX=0.5;entryY=1;entryDx=0;entryDy=0;endArrow=ERmany;endFill=0;startArrow=ERmany;startFill=0;" edge="1" parent="1" source="MHyRO_CBDMnhwAzOUelk-71" target="MHyRO_CBDMnhwAzOUelk-46">
          <mxGeometry relative="1" as="geometry" />
        </mxCell>
        <mxCell id="MHyRO_CBDMnhwAzOUelk-71" value="Tiene" style="shape=rhombus;perimeter=rhombusPerimeter;whiteSpace=wrap;html=1;align=center;" vertex="1" parent="1">
          <mxGeometry x="190" y="880" width="120" height="60" as="geometry" />
        </mxCell>
        <mxCell id="MHyRO_CBDMnhwAzOUelk-72" style="edgeStyle=orthogonalEdgeStyle;rounded=0;orthogonalLoop=1;jettySize=auto;html=1;entryX=0.44;entryY=-0.05;entryDx=0;entryDy=0;entryPerimeter=0;endArrow=ERone;endFill=0;startArrow=ERone;startFill=0;" edge="1" parent="1" source="MHyRO_CBDMnhwAzOUelk-71" target="MHyRO_CBDMnhwAzOUelk-66">
          <mxGeometry relative="1" as="geometry" />
        </mxCell>
        <mxCell id="MHyRO_CBDMnhwAzOUelk-74" value="Municipios" style="whiteSpace=wrap;html=1;align=center;" vertex="1" parent="1">
          <mxGeometry x="690" y="1060" width="100" height="40" as="geometry" />
        </mxCell>
        <mxCell id="MHyRO_CBDMnhwAzOUelk-79" style="edgeStyle=orthogonalEdgeStyle;rounded=0;orthogonalLoop=1;jettySize=auto;html=1;entryX=1;entryY=0.5;entryDx=0;entryDy=0;endArrow=none;endFill=0;" edge="1" parent="1" source="MHyRO_CBDMnhwAzOUelk-75" target="MHyRO_CBDMnhwAzOUelk-74">
          <mxGeometry relative="1" as="geometry" />
        </mxCell>
        <mxCell id="MHyRO_CBDMnhwAzOUelk-75" value="&lt;span style=&quot;border-bottom: 1px dotted&quot;&gt;Id_Municipios&lt;/span&gt;" style="ellipse;whiteSpace=wrap;html=1;align=center;" vertex="1" parent="1">
          <mxGeometry x="850" y="1060" width="100" height="40" as="geometry" />
        </mxCell>
        <mxCell id="MHyRO_CBDMnhwAzOUelk-76" value="PK" style="text;strokeColor=none;fillColor=none;spacingLeft=4;spacingRight=4;overflow=hidden;rotatable=0;points=[[0,0.5],[1,0.5]];portConstraint=eastwest;fontSize=12;whiteSpace=wrap;html=1;" vertex="1" parent="1">
          <mxGeometry x="80" y="1065" width="40" height="30" as="geometry" />
        </mxCell>
        <mxCell id="MHyRO_CBDMnhwAzOUelk-81" style="edgeStyle=orthogonalEdgeStyle;rounded=0;orthogonalLoop=1;jettySize=auto;html=1;entryX=1;entryY=0.5;entryDx=0;entryDy=0;endArrow=none;endFill=0;" edge="1" parent="1" source="MHyRO_CBDMnhwAzOUelk-77" target="MHyRO_CBDMnhwAzOUelk-74">
          <mxGeometry relative="1" as="geometry" />
        </mxCell>
        <mxCell id="MHyRO_CBDMnhwAzOUelk-77" value="&lt;span style=&quot;border-bottom: 1px dotted&quot;&gt;Id_Estado&lt;/span&gt;" style="ellipse;whiteSpace=wrap;html=1;align=center;" vertex="1" parent="1">
          <mxGeometry x="850" y="930" width="100" height="40" as="geometry" />
        </mxCell>
        <mxCell id="MHyRO_CBDMnhwAzOUelk-80" style="edgeStyle=orthogonalEdgeStyle;rounded=0;orthogonalLoop=1;jettySize=auto;html=1;entryX=1;entryY=0.5;entryDx=0;entryDy=0;endArrow=none;endFill=0;" edge="1" parent="1" source="MHyRO_CBDMnhwAzOUelk-78" target="MHyRO_CBDMnhwAzOUelk-74">
          <mxGeometry relative="1" as="geometry" />
        </mxCell>
        <mxCell id="MHyRO_CBDMnhwAzOUelk-78" value="NombreMunicipio" style="ellipse;whiteSpace=wrap;html=1;align=center;" vertex="1" parent="1">
          <mxGeometry x="850" y="1000" width="100" height="40" as="geometry" />
        </mxCell>
        <mxCell id="MHyRO_CBDMnhwAzOUelk-82" value="PK" style="text;strokeColor=none;fillColor=none;spacingLeft=4;spacingRight=4;overflow=hidden;rotatable=0;points=[[0,0.5],[1,0.5]];portConstraint=eastwest;fontSize=12;whiteSpace=wrap;html=1;" vertex="1" parent="1">
          <mxGeometry x="820" y="1060" width="40" height="30" as="geometry" />
        </mxCell>
        <mxCell id="MHyRO_CBDMnhwAzOUelk-83" value="FK" style="text;strokeColor=none;fillColor=none;spacingLeft=4;spacingRight=4;overflow=hidden;rotatable=0;points=[[0,0.5],[1,0.5]];portConstraint=eastwest;fontSize=12;whiteSpace=wrap;html=1;" vertex="1" parent="1">
          <mxGeometry x="810" y="920" width="40" height="30" as="geometry" />
        </mxCell>
        <mxCell id="MHyRO_CBDMnhwAzOUelk-85" style="edgeStyle=orthogonalEdgeStyle;rounded=0;orthogonalLoop=1;jettySize=auto;html=1;entryX=1;entryY=0.5;entryDx=0;entryDy=0;endArrow=ERone;endFill=0;startArrow=ERone;startFill=0;" edge="1" parent="1" source="MHyRO_CBDMnhwAzOUelk-84" target="MHyRO_CBDMnhwAzOUelk-66">
          <mxGeometry relative="1" as="geometry" />
        </mxCell>
        <mxCell id="MHyRO_CBDMnhwAzOUelk-86" style="edgeStyle=orthogonalEdgeStyle;rounded=0;orthogonalLoop=1;jettySize=auto;html=1;entryX=0;entryY=0.5;entryDx=0;entryDy=0;endArrow=ERmany;endFill=0;startArrow=ERone;startFill=0;" edge="1" parent="1" source="MHyRO_CBDMnhwAzOUelk-84" target="MHyRO_CBDMnhwAzOUelk-74">
          <mxGeometry relative="1" as="geometry" />
        </mxCell>
        <mxCell id="MHyRO_CBDMnhwAzOUelk-84" value="Tiene" style="shape=rhombus;perimeter=rhombusPerimeter;whiteSpace=wrap;html=1;align=center;" vertex="1" parent="1">
          <mxGeometry x="414" y="1065" width="120" height="60" as="geometry" />
        </mxCell>
        <mxCell id="MHyRO_CBDMnhwAzOUelk-87" value="Carreras" style="whiteSpace=wrap;html=1;align=center;" vertex="1" parent="1">
          <mxGeometry x="780" y="490" width="100" height="40" as="geometry" />
        </mxCell>
        <mxCell id="MHyRO_CBDMnhwAzOUelk-93" style="edgeStyle=orthogonalEdgeStyle;rounded=0;orthogonalLoop=1;jettySize=auto;html=1;entryX=1;entryY=0.5;entryDx=0;entryDy=0;endArrow=none;endFill=0;" edge="1" parent="1" source="MHyRO_CBDMnhwAzOUelk-88" target="MHyRO_CBDMnhwAzOUelk-87">
          <mxGeometry relative="1" as="geometry" />
        </mxCell>
        <mxCell id="MHyRO_CBDMnhwAzOUelk-88" value="&lt;span style=&quot;border-bottom: 1px dotted&quot;&gt;Id_Carrera&lt;/span&gt;" style="ellipse;whiteSpace=wrap;html=1;align=center;" vertex="1" parent="1">
          <mxGeometry x="960" y="330" width="100" height="40" as="geometry" />
        </mxCell>
        <mxCell id="MHyRO_CBDMnhwAzOUelk-94" style="edgeStyle=orthogonalEdgeStyle;rounded=0;orthogonalLoop=1;jettySize=auto;html=1;entryX=1;entryY=0.5;entryDx=0;entryDy=0;endArrow=none;endFill=0;" edge="1" parent="1" source="MHyRO_CBDMnhwAzOUelk-89" target="MHyRO_CBDMnhwAzOUelk-87">
          <mxGeometry relative="1" as="geometry" />
        </mxCell>
        <mxCell id="MHyRO_CBDMnhwAzOUelk-89" value="NombreCarrera" style="ellipse;whiteSpace=wrap;html=1;align=center;" vertex="1" parent="1">
          <mxGeometry x="960" y="390" width="100" height="40" as="geometry" />
        </mxCell>
        <mxCell id="MHyRO_CBDMnhwAzOUelk-96" style="edgeStyle=orthogonalEdgeStyle;rounded=0;orthogonalLoop=1;jettySize=auto;html=1;entryX=1;entryY=0.5;entryDx=0;entryDy=0;endArrow=none;endFill=0;" edge="1" parent="1" source="MHyRO_CBDMnhwAzOUelk-91" target="MHyRO_CBDMnhwAzOUelk-87">
          <mxGeometry relative="1" as="geometry" />
        </mxCell>
        <mxCell id="MHyRO_CBDMnhwAzOUelk-91" value="&lt;span style=&quot;border-bottom: 1px dotted&quot;&gt;Id_Grupo&lt;/span&gt;" style="ellipse;whiteSpace=wrap;html=1;align=center;" vertex="1" parent="1">
          <mxGeometry x="960" y="450" width="100" height="40" as="geometry" />
        </mxCell>
        <mxCell id="MHyRO_CBDMnhwAzOUelk-97" style="edgeStyle=orthogonalEdgeStyle;rounded=0;orthogonalLoop=1;jettySize=auto;html=1;entryX=1;entryY=0.5;entryDx=0;entryDy=0;endArrow=none;endFill=0;" edge="1" parent="1" source="MHyRO_CBDMnhwAzOUelk-92" target="MHyRO_CBDMnhwAzOUelk-87">
          <mxGeometry relative="1" as="geometry" />
        </mxCell>
        <mxCell id="MHyRO_CBDMnhwAzOUelk-92" value="&lt;span style=&quot;border-bottom: 1px dotted&quot;&gt;Id_Semestre&lt;/span&gt;" style="ellipse;whiteSpace=wrap;html=1;align=center;" vertex="1" parent="1">
          <mxGeometry x="960" y="510" width="100" height="40" as="geometry" />
        </mxCell>
        <mxCell id="MHyRO_CBDMnhwAzOUelk-98" value="PK" style="text;strokeColor=none;fillColor=none;spacingLeft=4;spacingRight=4;overflow=hidden;rotatable=0;points=[[0,0.5],[1,0.5]];portConstraint=eastwest;fontSize=12;whiteSpace=wrap;html=1;" vertex="1" parent="1">
          <mxGeometry x="920" y="325" width="40" height="30" as="geometry" />
        </mxCell>
        <mxCell id="MHyRO_CBDMnhwAzOUelk-99" value="FK" style="text;strokeColor=none;fillColor=none;spacingLeft=4;spacingRight=4;overflow=hidden;rotatable=0;points=[[0,0.5],[1,0.5]];portConstraint=eastwest;fontSize=12;whiteSpace=wrap;html=1;" vertex="1" parent="1">
          <mxGeometry x="930" y="510" width="40" height="30" as="geometry" />
        </mxCell>
        <mxCell id="MHyRO_CBDMnhwAzOUelk-100" value="FK" style="text;strokeColor=none;fillColor=none;spacingLeft=4;spacingRight=4;overflow=hidden;rotatable=0;points=[[0,0.5],[1,0.5]];portConstraint=eastwest;fontSize=12;whiteSpace=wrap;html=1;" vertex="1" parent="1">
          <mxGeometry x="930" y="440" width="40" height="30" as="geometry" />
        </mxCell>
        <mxCell id="MHyRO_CBDMnhwAzOUelk-107" style="edgeStyle=orthogonalEdgeStyle;rounded=0;orthogonalLoop=1;jettySize=auto;html=1;entryX=0.5;entryY=0;entryDx=0;entryDy=0;endArrow=ERmany;endFill=0;startArrow=ERmany;startFill=0;" edge="1" parent="1" source="MHyRO_CBDMnhwAzOUelk-101" target="MHyRO_CBDMnhwAzOUelk-46">
          <mxGeometry relative="1" as="geometry" />
        </mxCell>
        <mxCell id="MHyRO_CBDMnhwAzOUelk-108" style="edgeStyle=orthogonalEdgeStyle;rounded=0;orthogonalLoop=1;jettySize=auto;html=1;entryX=0.5;entryY=1;entryDx=0;entryDy=0;endArrow=ERmany;endFill=0;startArrow=ERmany;startFill=0;" edge="1" parent="1" source="MHyRO_CBDMnhwAzOUelk-101" target="MHyRO_CBDMnhwAzOUelk-87">
          <mxGeometry relative="1" as="geometry" />
        </mxCell>
        <mxCell id="MHyRO_CBDMnhwAzOUelk-101" value="Tienen" style="shape=rhombus;perimeter=rhombusPerimeter;whiteSpace=wrap;html=1;align=center;" vertex="1" parent="1">
          <mxGeometry x="700" y="640" width="120" height="60" as="geometry" />
        </mxCell>
        <mxCell id="MHyRO_CBDMnhwAzOUelk-109" value="Semestres" style="whiteSpace=wrap;html=1;align=center;" vertex="1" parent="1">
          <mxGeometry x="890" y="760" width="100" height="40" as="geometry" />
        </mxCell>
        <mxCell id="MHyRO_CBDMnhwAzOUelk-112" style="edgeStyle=orthogonalEdgeStyle;rounded=0;orthogonalLoop=1;jettySize=auto;html=1;entryX=0.5;entryY=1;entryDx=0;entryDy=0;endArrow=none;endFill=0;" edge="1" parent="1" source="MHyRO_CBDMnhwAzOUelk-110" target="MHyRO_CBDMnhwAzOUelk-109">
          <mxGeometry relative="1" as="geometry" />
        </mxCell>
        <mxCell id="MHyRO_CBDMnhwAzOUelk-110" value="&lt;span style=&quot;border-bottom: 1px dotted&quot;&gt;Id_Semestre&lt;/span&gt;" style="ellipse;whiteSpace=wrap;html=1;align=center;" vertex="1" parent="1">
          <mxGeometry x="820" y="830" width="100" height="40" as="geometry" />
        </mxCell>
        <mxCell id="MHyRO_CBDMnhwAzOUelk-113" style="edgeStyle=orthogonalEdgeStyle;rounded=0;orthogonalLoop=1;jettySize=auto;html=1;entryX=0.5;entryY=1;entryDx=0;entryDy=0;endArrow=none;endFill=0;" edge="1" parent="1" source="MHyRO_CBDMnhwAzOUelk-111" target="MHyRO_CBDMnhwAzOUelk-109">
          <mxGeometry relative="1" as="geometry">
            <Array as="points">
              <mxPoint x="1020" y="810" />
              <mxPoint x="940" y="810" />
            </Array>
          </mxGeometry>
        </mxCell>
        <mxCell id="MHyRO_CBDMnhwAzOUelk-111" value="NombreSem" style="ellipse;whiteSpace=wrap;html=1;align=center;" vertex="1" parent="1">
          <mxGeometry x="970" y="830" width="100" height="40" as="geometry" />
        </mxCell>
        <mxCell id="MHyRO_CBDMnhwAzOUelk-114" value="PK" style="text;strokeColor=none;fillColor=none;spacingLeft=4;spacingRight=4;overflow=hidden;rotatable=0;points=[[0,0.5],[1,0.5]];portConstraint=eastwest;fontSize=12;whiteSpace=wrap;html=1;" vertex="1" parent="1">
          <mxGeometry x="850" y="780" width="40" height="30" as="geometry" />
        </mxCell>
        <mxCell id="MHyRO_CBDMnhwAzOUelk-116" style="edgeStyle=orthogonalEdgeStyle;rounded=0;orthogonalLoop=1;jettySize=auto;html=1;entryX=0.5;entryY=1;entryDx=0;entryDy=0;endArrow=ERmany;endFill=0;startArrow=ERmany;startFill=0;" edge="1" parent="1" source="MHyRO_CBDMnhwAzOUelk-115" target="MHyRO_CBDMnhwAzOUelk-87">
          <mxGeometry relative="1" as="geometry">
            <Array as="points">
              <mxPoint x="830" y="670" />
            </Array>
          </mxGeometry>
        </mxCell>
        <mxCell id="MHyRO_CBDMnhwAzOUelk-117" style="edgeStyle=orthogonalEdgeStyle;rounded=0;orthogonalLoop=1;jettySize=auto;html=1;entryX=0.5;entryY=0;entryDx=0;entryDy=0;endArrow=ERmany;endFill=0;startArrow=ERmany;startFill=0;" edge="1" parent="1" source="MHyRO_CBDMnhwAzOUelk-115" target="MHyRO_CBDMnhwAzOUelk-109">
          <mxGeometry relative="1" as="geometry" />
        </mxCell>
        <mxCell id="MHyRO_CBDMnhwAzOUelk-115" value="Tienen" style="shape=rhombus;perimeter=rhombusPerimeter;whiteSpace=wrap;html=1;align=center;" vertex="1" parent="1">
          <mxGeometry x="990" y="640" width="120" height="60" as="geometry" />
        </mxCell>
        <mxCell id="MHyRO_CBDMnhwAzOUelk-119" value="Grupos" style="whiteSpace=wrap;html=1;align=center;" vertex="1" parent="1">
          <mxGeometry x="1230" y="360" width="100" height="40" as="geometry" />
        </mxCell>
        <mxCell id="MHyRO_CBDMnhwAzOUelk-122" style="edgeStyle=orthogonalEdgeStyle;rounded=0;orthogonalLoop=1;jettySize=auto;html=1;entryX=1;entryY=0.5;entryDx=0;entryDy=0;endArrow=none;endFill=0;" edge="1" parent="1" source="MHyRO_CBDMnhwAzOUelk-120" target="MHyRO_CBDMnhwAzOUelk-119">
          <mxGeometry relative="1" as="geometry" />
        </mxCell>
        <mxCell id="MHyRO_CBDMnhwAzOUelk-120" value="&lt;span style=&quot;border-bottom: 1px dotted&quot;&gt;Id_Grupo&lt;/span&gt;" style="ellipse;whiteSpace=wrap;html=1;align=center;" vertex="1" parent="1">
          <mxGeometry x="1370" y="325" width="100" height="40" as="geometry" />
        </mxCell>
        <mxCell id="MHyRO_CBDMnhwAzOUelk-123" style="edgeStyle=orthogonalEdgeStyle;rounded=0;orthogonalLoop=1;jettySize=auto;html=1;entryX=1;entryY=0.5;entryDx=0;entryDy=0;endArrow=none;endFill=0;" edge="1" parent="1" source="MHyRO_CBDMnhwAzOUelk-121" target="MHyRO_CBDMnhwAzOUelk-119">
          <mxGeometry relative="1" as="geometry" />
        </mxCell>
        <mxCell id="MHyRO_CBDMnhwAzOUelk-121" value="NombreGrupo" style="ellipse;whiteSpace=wrap;html=1;align=center;" vertex="1" parent="1">
          <mxGeometry x="1380" y="390" width="100" height="40" as="geometry" />
        </mxCell>
        <mxCell id="MHyRO_CBDMnhwAzOUelk-124" value="PK" style="text;strokeColor=none;fillColor=none;spacingLeft=4;spacingRight=4;overflow=hidden;rotatable=0;points=[[0,0.5],[1,0.5]];portConstraint=eastwest;fontSize=12;whiteSpace=wrap;html=1;" vertex="1" parent="1">
          <mxGeometry x="1340" y="320" width="40" height="30" as="geometry" />
        </mxCell>
        <mxCell id="MHyRO_CBDMnhwAzOUelk-126" style="edgeStyle=orthogonalEdgeStyle;rounded=0;orthogonalLoop=1;jettySize=auto;html=1;entryX=0.5;entryY=1;entryDx=0;entryDy=0;endArrow=ERmany;endFill=0;startArrow=ERmany;startFill=0;" edge="1" parent="1" source="MHyRO_CBDMnhwAzOUelk-125" target="MHyRO_CBDMnhwAzOUelk-87">
          <mxGeometry relative="1" as="geometry" />
        </mxCell>
        <mxCell id="MHyRO_CBDMnhwAzOUelk-127" style="edgeStyle=orthogonalEdgeStyle;rounded=0;orthogonalLoop=1;jettySize=auto;html=1;entryX=0.5;entryY=1;entryDx=0;entryDy=0;endArrow=ERmany;endFill=0;startArrow=ERmany;startFill=0;" edge="1" parent="1" source="MHyRO_CBDMnhwAzOUelk-125" target="MHyRO_CBDMnhwAzOUelk-119">
          <mxGeometry relative="1" as="geometry" />
        </mxCell>
        <mxCell id="MHyRO_CBDMnhwAzOUelk-125" value="Tienen" style="shape=rhombus;perimeter=rhombusPerimeter;whiteSpace=wrap;html=1;align=center;" vertex="1" parent="1">
          <mxGeometry x="1181" y="550" width="120" height="60" as="geometry" />
        </mxCell>
        <mxCell id="MHyRO_CBDMnhwAzOUelk-128" value="Expediente" style="whiteSpace=wrap;html=1;align=center;" vertex="1" parent="1">
          <mxGeometry x="310" y="60" width="100" height="40" as="geometry" />
        </mxCell>
        <mxCell id="MHyRO_CBDMnhwAzOUelk-130" style="edgeStyle=orthogonalEdgeStyle;rounded=0;orthogonalLoop=1;jettySize=auto;html=1;entryX=0;entryY=0.5;entryDx=0;entryDy=0;endArrow=none;endFill=0;" edge="1" parent="1" source="MHyRO_CBDMnhwAzOUelk-129" target="MHyRO_CBDMnhwAzOUelk-1">
          <mxGeometry relative="1" as="geometry" />
        </mxCell>
        <mxCell id="MHyRO_CBDMnhwAzOUelk-129" value="&lt;span style=&quot;border-bottom: 1px dotted&quot;&gt;Id_Expediente&lt;/span&gt;" style="ellipse;whiteSpace=wrap;html=1;align=center;" vertex="1" parent="1">
          <mxGeometry x="-150" y="1000" width="100" height="40" as="geometry" />
        </mxCell>
        <mxCell id="MHyRO_CBDMnhwAzOUelk-132" style="edgeStyle=orthogonalEdgeStyle;rounded=0;orthogonalLoop=1;jettySize=auto;html=1;entryX=0.5;entryY=0;entryDx=0;entryDy=0;endArrow=ERone;endFill=0;startArrow=ERone;startFill=0;" edge="1" parent="1" source="MHyRO_CBDMnhwAzOUelk-131" target="MHyRO_CBDMnhwAzOUelk-1">
          <mxGeometry relative="1" as="geometry" />
        </mxCell>
        <mxCell id="MHyRO_CBDMnhwAzOUelk-133" style="edgeStyle=orthogonalEdgeStyle;rounded=0;orthogonalLoop=1;jettySize=auto;html=1;entryX=0;entryY=0.5;entryDx=0;entryDy=0;endArrow=ERone;endFill=0;startArrow=ERone;startFill=0;" edge="1" parent="1" source="MHyRO_CBDMnhwAzOUelk-131" target="MHyRO_CBDMnhwAzOUelk-128">
          <mxGeometry relative="1" as="geometry" />
        </mxCell>
        <mxCell id="MHyRO_CBDMnhwAzOUelk-131" value="Tiene" style="shape=rhombus;perimeter=rhombusPerimeter;whiteSpace=wrap;html=1;align=center;" vertex="1" parent="1">
          <mxGeometry x="70" y="50" width="120" height="60" as="geometry" />
        </mxCell>
        <mxCell id="MHyRO_CBDMnhwAzOUelk-142" style="edgeStyle=orthogonalEdgeStyle;rounded=0;orthogonalLoop=1;jettySize=auto;html=1;entryX=1;entryY=0.5;entryDx=0;entryDy=0;endArrow=none;endFill=0;" edge="1" parent="1" source="MHyRO_CBDMnhwAzOUelk-134" target="MHyRO_CBDMnhwAzOUelk-128">
          <mxGeometry relative="1" as="geometry" />
        </mxCell>
        <mxCell id="MHyRO_CBDMnhwAzOUelk-134" value="&lt;span style=&quot;border-bottom: 1px dotted&quot;&gt;Id_Expediente&lt;/span&gt;" style="ellipse;whiteSpace=wrap;html=1;align=center;" vertex="1" parent="1">
          <mxGeometry x="600" y="10" width="100" height="40" as="geometry" />
        </mxCell>
        <mxCell id="MHyRO_CBDMnhwAzOUelk-143" style="edgeStyle=orthogonalEdgeStyle;rounded=0;orthogonalLoop=1;jettySize=auto;html=1;entryX=1;entryY=0.5;entryDx=0;entryDy=0;endArrow=none;endFill=0;" edge="1" parent="1" source="MHyRO_CBDMnhwAzOUelk-136" target="MHyRO_CBDMnhwAzOUelk-128">
          <mxGeometry relative="1" as="geometry" />
        </mxCell>
        <mxCell id="MHyRO_CBDMnhwAzOUelk-136" value="Matricula" style="ellipse;whiteSpace=wrap;html=1;align=center;" vertex="1" parent="1">
          <mxGeometry x="600" y="60" width="100" height="40" as="geometry" />
        </mxCell>
        <mxCell id="MHyRO_CBDMnhwAzOUelk-144" style="edgeStyle=orthogonalEdgeStyle;rounded=0;orthogonalLoop=1;jettySize=auto;html=1;entryX=1;entryY=0.5;entryDx=0;entryDy=0;endArrow=none;endFill=0;" edge="1" parent="1" source="MHyRO_CBDMnhwAzOUelk-137" target="MHyRO_CBDMnhwAzOUelk-128">
          <mxGeometry relative="1" as="geometry" />
        </mxCell>
        <mxCell id="MHyRO_CBDMnhwAzOUelk-137" value="Calle" style="ellipse;whiteSpace=wrap;html=1;align=center;" vertex="1" parent="1">
          <mxGeometry x="600" y="110" width="100" height="40" as="geometry" />
        </mxCell>
        <mxCell id="MHyRO_CBDMnhwAzOUelk-145" style="edgeStyle=orthogonalEdgeStyle;rounded=0;orthogonalLoop=1;jettySize=auto;html=1;entryX=1;entryY=0.5;entryDx=0;entryDy=0;endArrow=none;endFill=0;" edge="1" parent="1" source="MHyRO_CBDMnhwAzOUelk-138" target="MHyRO_CBDMnhwAzOUelk-128">
          <mxGeometry relative="1" as="geometry" />
        </mxCell>
        <mxCell id="MHyRO_CBDMnhwAzOUelk-138" value="Colonia" style="ellipse;whiteSpace=wrap;html=1;align=center;" vertex="1" parent="1">
          <mxGeometry x="600" y="170" width="100" height="40" as="geometry" />
        </mxCell>
        <mxCell id="MHyRO_CBDMnhwAzOUelk-146" style="edgeStyle=orthogonalEdgeStyle;rounded=0;orthogonalLoop=1;jettySize=auto;html=1;entryX=1;entryY=0.5;entryDx=0;entryDy=0;endArrow=none;endFill=0;" edge="1" parent="1" source="MHyRO_CBDMnhwAzOUelk-139" target="MHyRO_CBDMnhwAzOUelk-128">
          <mxGeometry relative="1" as="geometry" />
        </mxCell>
        <mxCell id="MHyRO_CBDMnhwAzOUelk-139" value="Numero" style="ellipse;whiteSpace=wrap;html=1;align=center;" vertex="1" parent="1">
          <mxGeometry x="600" y="230" width="100" height="40" as="geometry" />
        </mxCell>
        <mxCell id="MHyRO_CBDMnhwAzOUelk-147" style="edgeStyle=orthogonalEdgeStyle;rounded=0;orthogonalLoop=1;jettySize=auto;html=1;entryX=1;entryY=0.5;entryDx=0;entryDy=0;endArrow=none;endFill=0;" edge="1" parent="1" source="MHyRO_CBDMnhwAzOUelk-140" target="MHyRO_CBDMnhwAzOUelk-128">
          <mxGeometry relative="1" as="geometry" />
        </mxCell>
        <mxCell id="MHyRO_CBDMnhwAzOUelk-140" value="Cp" style="ellipse;whiteSpace=wrap;html=1;align=center;" vertex="1" parent="1">
          <mxGeometry x="600" y="285" width="100" height="40" as="geometry" />
        </mxCell>
        <mxCell id="MHyRO_CBDMnhwAzOUelk-148" style="edgeStyle=orthogonalEdgeStyle;rounded=0;orthogonalLoop=1;jettySize=auto;html=1;entryX=1;entryY=0.5;entryDx=0;entryDy=0;endArrow=none;endFill=0;" edge="1" parent="1" source="MHyRO_CBDMnhwAzOUelk-141" target="MHyRO_CBDMnhwAzOUelk-128">
          <mxGeometry relative="1" as="geometry" />
        </mxCell>
        <mxCell id="MHyRO_CBDMnhwAzOUelk-141" value="&lt;span style=&quot;border-bottom: 1px dotted&quot;&gt;Id_Incidencia&lt;/span&gt;" style="ellipse;whiteSpace=wrap;html=1;align=center;" vertex="1" parent="1">
          <mxGeometry x="600" y="350" width="100" height="40" as="geometry" />
        </mxCell>
      </root>
    </mxGraphModel>
  </diagram>
</mxfile>
